<svg width="42" height="41" viewBox="0 0 42 41" fill="none" xmlns="http://www.w3.org/2000/svg">
<g clip-path="url(#clip0_9_45)">
<rect width="42" height="41" fill="#5E0071"/>
<path d="M1.75 1.70833H8.75L13.44 24.5829C13.6 25.3694 14.0383 26.0759 14.6782 26.5788C15.3181 27.0816 16.1187 27.3487 16.94 27.3333H33.95C34.7713 27.3487 35.5719 27.0816 36.2118 26.5788C36.8517 26.0759 37.29 25.3694 37.45 24.5829L40.25 10.25H10.5M17.5 35.875C17.5 36.8185 16.7165 37.5833 15.75 37.5833C14.7835 37.5833 14 36.8185 14 35.875C14 34.9315 14.7835 34.1667 15.75 34.1667C16.7165 34.1667 17.5 34.9315 17.5 35.875ZM36.75 35.875C36.75 36.8185 35.9665 37.5833 35 37.5833C34.0335 37.5833 33.25 36.8185 33.25 35.875C33.25 34.9315 34.0335 34.1667 35 34.1667C35.9665 34.1667 36.75 34.9315 36.75 35.875Z" stroke="white" stroke-width="4" stroke-linecap="round" stroke-linejoin="round"/>
</g>
<defs>
<clipPath id="clip0_9_45">
<rect width="42" height="41" fill="white"/>
</clipPath>
</defs>
</svg>
